<?xml version="1.0" standalone="no"?>
<!DOCTYPE svg PUBLIC "-//W3C//DTD SVG 20010904//EN"
 "http://www.w3.org/TR/2001/REC-SVG-20010904/DTD/svg10.dtd">
<svg version="1.0" xmlns="http://www.w3.org/2000/svg"
 width="800.000000pt" height="800.000000pt" viewBox="0 0 800.000000 800.000000"
 preserveAspectRatio="xMidYMid meet">
<metadata>
Created by potrace 1.14, written by Peter Selinger 2001-2017
</metadata>
<g transform="translate(0.000000,800.000000) scale(0.100000,-0.100000)"
fill="#000000" stroke="none">
<path d="M3420 6084 c-570 -187 -1097 -359 -1338 -438 -89 -29 -164 -55 -167
-57 -7 -7 -24 -206 -34 -404 -69 -1267 561 -2498 1630 -3190 113 -74 413 -245
428 -245 10 0 269 144 376 210 268 164 561 413 785 665 103 117 260 320 260
337 0 6 -10 8 -22 4 -13 -3 -98 -6 -189 -6 l-166 0 -47 -59 c-115 -147 -385
-401 -576 -543 -134 -99 -394 -258 -422 -258 -36 0 -378 225 -558 368 -112 89
-371 345 -456 452 -421 525 -663 1116 -730 1783 -13 124 -15 216 -10 392 3
127 8 239 11 251 5 15 25 26 78 43 40 12 407 132 817 266 410 134 769 251 799
261 l54 17 321 -106 c804 -265 1394 -457 1404 -457 18 0 26 -107 27 -352 0
-131 3 -238 6 -238 14 0 150 -98 212 -152 61 -55 67 -58 68 -37 0 13 3 33 5
44 3 11 8 140 11 287 5 240 -2 417 -23 615 l-6 52 -197 65 c-108 36 -446 146
-751 246 -305 100 -670 219 -811 266 -141 46 -262 84 -270 84 -8 0 -241 -75
-519 -166z"/>
<path d="M4415 5273 c-240 -51 -452 -204 -576 -415 -30 -51 -47 -69 -67 -74
-335 -73 -592 -310 -684 -631 -19 -66 -23 -102 -22 -233 0 -143 2 -162 28
-240 109 -328 338 -536 671 -611 48 -11 219 -14 830 -14 765 0 771 0 858 22
169 43 298 116 415 235 149 151 228 314 251 520 18 156 -9 317 -78 463 -110
234 -325 411 -576 475 -44 11 -84 27 -90 35 -5 8 -26 43 -45 77 -49 88 -196
231 -294 287 -193 109 -419 147 -621 104z"/>
</g>
</svg>
